<svg xmlns="http://www.w3.org/2000/svg" viewBox="0 0 95.66 180.69"><defs><style>.cls-1,.cls-2{fill:#fff;}.cls-2{stroke:#fff;stroke-miterlimit:10;}</style></defs><g id="Calque_2" data-name="Calque 2"><g id="Calque_1-2" data-name="Calque 1"><path class="cls-1" d="M17.26,94A54.47,54.47,0,0,1,4.32,75.44,56.59,56.59,0,0,1,0,53.31a49.23,49.23,0,0,1,4.66-21,57.27,57.27,0,0,1,12.6-17.54Zm72.52,1.39a53,53,0,0,1-16.63,9.88,55.42,55.42,0,0,1-37.31.21,52.6,52.6,0,0,1-16.07-9.12V12.39A53.81,53.81,0,0,1,54.15,0,54.5,54.5,0,0,1,73.22,3.41,51.06,51.06,0,0,1,89.78,13.5l-2.5,3.06A45,45,0,0,0,71.89,7.24,52.28,52.28,0,0,0,54.15,4.18,50.28,50.28,0,0,0,38,6.81a49.76,49.76,0,0,0-14.34,7.64v80A49.62,49.62,0,0,0,38.07,102a50.47,50.47,0,0,0,33.82-.57,49.25,49.25,0,0,0,15.39-9.18Z"/><path class="cls-1" d="M42.13,95.24V16.64H37.35v-3H54.83V95.24ZM95.66,50.51a36.17,36.17,0,0,1-4,16.67A37.27,37.27,0,0,1,80.58,80.26l9,15H86L78.12,82a38.52,38.52,0,0,1-17.86,5.53v7.71h-3V13.6h1.52A36.59,36.59,0,0,1,84.83,24.4a38.27,38.27,0,0,1,7.9,11.78A35.6,35.6,0,0,1,95.66,50.51Zm-3,0a33.4,33.4,0,0,0-9.4-23.37A34.69,34.69,0,0,0,73,19.83a33.23,33.23,0,0,0-12.7-3.09V84.28A33.23,33.23,0,0,0,73,81.19a34.66,34.66,0,0,0,10.26-7.3,33.53,33.53,0,0,0,6.9-10.55A33.19,33.19,0,0,0,92.62,50.51Z"/><polygon class="cls-1" points="72.37 180.69 69.15 179 65.93 180.69 66.54 177.11 63.94 174.57 67.54 174.04 69.15 170.78 70.76 174.04 74.36 174.57 71.75 177.11 72.37 180.69"/><line class="cls-2" x1="7.23" y1="162.99" x2="93.95" y2="162.99"/><path class="cls-1" d="M26.13,116.75V132.1h-1.5v-7.18H15.54v7.18H14V116.75h1.51v6.83h9.09v-6.83Z"/><path class="cls-1" d="M38.1,132.21a6.61,6.61,0,0,1-2.94-.65,7.12,7.12,0,0,1-2.27-1.76,8.54,8.54,0,0,1-1.47-2.51,8.17,8.17,0,0,1,0-5.79A8.13,8.13,0,0,1,33,119a7.7,7.7,0,0,1,2.31-1.73,6.5,6.5,0,0,1,2.85-.63,6.36,6.36,0,0,1,2.94.67,7,7,0,0,1,2.26,1.79,8.49,8.49,0,0,1,1.45,2.51,7.88,7.88,0,0,1,.52,2.83,8.06,8.06,0,0,1-.54,2.93,8.17,8.17,0,0,1-1.51,2.48A7.16,7.16,0,0,1,41,131.58,6.53,6.53,0,0,1,38.1,132.21Zm-5.69-7.78a7.31,7.31,0,0,0,.41,2.41,6.8,6.8,0,0,0,1.17,2,5.68,5.68,0,0,0,1.81,1.42,4.9,4.9,0,0,0,2.3.53,5,5,0,0,0,2.36-.55,5.55,5.55,0,0,0,1.8-1.47,6.77,6.77,0,0,0,1.13-2.06,7.19,7.19,0,0,0,0-4.73A6.58,6.58,0,0,0,42.19,120a5.61,5.61,0,0,0-1.8-1.42,5.34,5.34,0,0,0-4.64,0A5.62,5.62,0,0,0,34,120a6.82,6.82,0,0,0-1.15,2.06A7.24,7.24,0,0,0,32.41,124.43Z"/><path class="cls-1" d="M60.44,118.09H55v14H53.46v-14H48v-1.34H60.44Z"/><path class="cls-1" d="M75,130.76v1.34H64.68V116.75H74.79v1.34h-8.6v5.54h7.5v1.27h-7.5v5.86Z"/><path class="cls-1" d="M79.78,132.1V116.75h1.51v14h8.86v1.34Z"/><path class="cls-1" d="M19.61,153.84V138.5H26a4,4,0,0,1,1.83.41A4.42,4.42,0,0,1,29.22,140a5.44,5.44,0,0,1,1,1.56,4.53,4.53,0,0,1,.35,1.73,5.22,5.22,0,0,1-.55,2.37,4.66,4.66,0,0,1-1.55,1.8,3.92,3.92,0,0,1-2.33.7h-5v5.66Zm1.51-7H26a2.56,2.56,0,0,0,1.57-.5,3.18,3.18,0,0,0,1-1.3,4,4,0,0,0,.37-1.73,3.74,3.74,0,0,0-.43-1.75,3.48,3.48,0,0,0-1.14-1.26,2.73,2.73,0,0,0-1.54-.46H21.12Z"/><path class="cls-1" d="M38.69,138.5H40l6.38,15.34h-1.6L42.82,149h-7l-1.92,4.8H32.27Zm3.65,9.35-3-7.58-3,7.58Z"/><path class="cls-1" d="M50.48,153.84V138.5H57a3.92,3.92,0,0,1,1.81.41A4.56,4.56,0,0,1,60.22,140a5.44,5.44,0,0,1,1,1.56,4.7,4.7,0,0,1,.33,1.73,5.19,5.19,0,0,1-.42,2.08A4.48,4.48,0,0,1,59.89,147a3.92,3.92,0,0,1-1.8.89l3.76,5.92H60.14l-3.61-5.66H52v5.66Zm1.52-7h5a2.61,2.61,0,0,0,1.58-.5,3.28,3.28,0,0,0,1-1.31,4,4,0,0,0,.37-1.72,3.58,3.58,0,0,0-.42-1.71,3.66,3.66,0,0,0-1.12-1.28,2.72,2.72,0,0,0-1.57-.48H52Z"/><path class="cls-1" d="M66.54,153.84V138.5h1.51v15.34Z"/><path class="cls-1" d="M82.81,141.37a4.45,4.45,0,0,0-.76-.66,5.9,5.9,0,0,0-1-.51,6.81,6.81,0,0,0-1.16-.34,6.06,6.06,0,0,0-1.31-.13,4.62,4.62,0,0,0-2.94.76,2.56,2.56,0,0,0-.94,2.09,2.08,2.08,0,0,0,.44,1.42,3.08,3.08,0,0,0,1.39.84c.64.22,1.44.44,2.42.67a16.71,16.71,0,0,1,2.83.82,4.4,4.4,0,0,1,1.84,1.28,3.42,3.42,0,0,1,.65,2.19,3.93,3.93,0,0,1-.41,1.84,3.74,3.74,0,0,1-1.15,1.29,5.09,5.09,0,0,1-1.75.77,9.67,9.67,0,0,1-2.22.25,10.48,10.48,0,0,1-2.28-.25,9.1,9.1,0,0,1-2.07-.74,8.09,8.09,0,0,1-1.81-1.24l.75-1.23a5.8,5.8,0,0,0,1,.81,8,8,0,0,0,1.27.68,7.18,7.18,0,0,0,1.51.46,8.4,8.4,0,0,0,1.68.17,5.26,5.26,0,0,0,2.86-.67,2.22,2.22,0,0,0,1-2,2.16,2.16,0,0,0-.52-1.52,3.81,3.81,0,0,0-1.56-.94,24.3,24.3,0,0,0-2.55-.71,17.57,17.57,0,0,1-2.7-.82,3.77,3.77,0,0,1-1.65-1.2,3.2,3.2,0,0,1-.55-2,4,4,0,0,1,.7-2.41,4.28,4.28,0,0,1,1.94-1.48,7.33,7.33,0,0,1,2.83-.51,8.76,8.76,0,0,1,1.89.2,7.11,7.11,0,0,1,1.62.6,6.82,6.82,0,0,1,1.39,1Z"/><polygon class="cls-1" points="91.78 180.69 88.56 179 85.33 180.69 85.95 177.11 83.34 174.57 86.94 174.04 88.56 170.78 90.17 174.04 93.77 174.57 91.16 177.11 91.78 180.69"/><polygon class="cls-1" points="52.54 180.69 49.32 179 46.1 180.69 46.71 177.11 44.11 174.57 47.71 174.04 49.32 170.78 50.93 174.04 54.53 174.57 51.93 177.11 52.54 180.69"/><polygon class="cls-1" points="34.19 180.69 30.97 179 27.75 180.69 28.37 177.11 25.76 174.57 29.36 174.04 30.97 170.78 32.58 174.04 36.19 174.57 33.58 177.11 34.19 180.69"/><polygon class="cls-1" points="15.85 180.69 12.63 179 9.4 180.69 10.02 177.11 7.41 174.57 11.02 174.04 12.63 170.78 14.24 174.04 17.84 174.57 15.23 177.11 15.85 180.69"/></g></g></svg>