<svg xmlns="http://www.w3.org/2000/svg" viewBox="0 0 68.72 78"><defs><style>.cls-1{fill:#222;}</style></defs><g id="Calque_2" data-name="Calque 2"><g id="Calque_1-2" data-name="Calque 1"><path class="cls-1" d="M12.4,67.5A39.14,39.14,0,0,1,3.1,54.2,40.65,40.65,0,0,1,0,38.3,35.42,35.42,0,0,1,3.35,23.2,41,41,0,0,1,12.4,10.6Zm52.1,1a37.82,37.82,0,0,1-12,7.1,39.79,39.79,0,0,1-26.8.15A37.81,37.81,0,0,1,14.2,69.2V8.9A38.71,38.71,0,0,1,38.9,0,39.14,39.14,0,0,1,52.6,2.45,36.43,36.43,0,0,1,64.5,9.7l-1.8,2.2A32.34,32.34,0,0,0,51.65,5.2,37.49,37.49,0,0,0,38.9,3,36,36,0,0,0,17,10.38V67.82a35.73,35.73,0,0,0,10.35,5.49,36.37,36.37,0,0,0,24.3-.41A35.33,35.33,0,0,0,62.7,66.3Z"/><path class="cls-1" d="M30.27,68.42V12H26.83V9.77H39.39V68.42ZM68.72,36.29a26.06,26.06,0,0,1-2.84,12,26.74,26.74,0,0,1-8,9.4l6.47,10.76H61.8l-5.68-9.51a27.71,27.71,0,0,1-12.83,4v5.53H41.11V9.77H42.2a26.36,26.36,0,0,1,18.74,7.76A27.53,27.53,0,0,1,66.62,26,25.61,25.61,0,0,1,68.72,36.29Zm-2.18,0a23.63,23.63,0,0,0-1.8-9.21,24,24,0,0,0-4.95-7.59,25,25,0,0,0-7.37-5.24A23.81,23.81,0,0,0,43.29,12V60.55a24,24,0,0,0,9.13-2.22,24.87,24.87,0,0,0,7.37-5.25,24.06,24.06,0,0,0,6.75-16.79Z"/></g></g></svg>